<svg xmlns="http://www.w3.org/2000/svg" viewBox="0 0 512 512" role="img" aria-labelledby="title desc">
  <title id="title">Sillage</title>
  <desc id="desc">A standalone trailing mark with a small glimmer.</desc>
  <defs>
    <linearGradient id="trail-light" x1="130" x2="382" y1="92" y2="418" gradientUnits="userSpaceOnUse">
      <stop stop-color="#111827" />
      <stop offset="0.54" stop-color="#244E47" />
      <stop offset="1" stop-color="#7A6A44" />
    </linearGradient>
    <linearGradient id="trail-dark" x1="130" x2="382" y1="92" y2="418" gradientUnits="userSpaceOnUse">
      <stop stop-color="#F8FAFC" />
      <stop offset="0.57" stop-color="#A7DCC9" />
      <stop offset="1" stop-color="#E2C987" />
    </linearGradient>
    <style>
      .trail {
        stroke: url("#trail-light");
      }

      .echo {
        stroke: #5D766C;
      }

      @media (prefers-color-scheme: dark) {
        .trail {
          stroke: url("#trail-dark");
        }

        .echo {
          stroke: #B7D9CC;
        }
      }
    </style>
  </defs>
  <path
    class="trail"
    d="M369 93C305 59 195 78 158 147C127 204 164 244 233 263C304 283 350 320 321 377C287 444 174 436 109 379"
    fill="none"
    stroke-linecap="round"
    stroke-linejoin="round"
    stroke-width="58"
  />
  <path
    class="echo"
    d="M338 184C297 166 240 170 214 201C194 225 215 250 263 263"
    fill="none"
    stroke-linecap="round"
    stroke-linejoin="round"
    stroke-opacity="0.42"
    stroke-width="21"
  />
  <path
    d="M381 104L397 136L429 152L397 168L381 200L365 168L333 152L365 136L381 104Z"
    fill="#F59E0B"
  />
</svg>
